HIERARCHY
ROOT ui
{
	 OFFSET 0 0 0
	 CHANNELS 3 XPosition YPosition Z Position
	 EndSite
	 {
	 OFFSET 0 -1 0
	 }
}
ROOT li
{
	 OFFSET 0 0 0
	 CHANNELS 3 XPosition YPosition Z Position
	 EndSite
	 {
	 OFFSET 0 -1 0
	 }
}
ROOT ul
{
	 OFFSET 0 0 0
	 CHANNELS 3 XPosition YPosition Z Position
	 EndSite
	 {
	 OFFSET 0 -1 0
	 }
}
ROOT ll
{
	 OFFSET 0 0 0
	 CHANNELS 3 XPosition YPosition Z Position
	 EndSite
	 {
	 OFFSET 0 -1 0
	 }
}
ROOT tt
{
	 OFFSET 0 0 0
	 CHANNELS 3 XPosition YPosition Z Position
	 EndSite
	 {
	 OFFSET 0 -1 0
	 }
}
ROOT tb
{
	 OFFSET 0 0 0
	 CHANNELS 3 XPosition YPosition Z Position
	 EndSite
	 {
	 OFFSET 0 -1 0
	 }
}
ROOT td
{
	 OFFSET 0 0 0
	 CHANNELS 3 XPosition YPosition Z Position
	 EndSite
	 {
	 OFFSET 0 -1 0
	 }
}
ROOT v
{
	 OFFSET 0 0 0
	 CHANNELS 3 XPosition YPosition Z Position
	 EndSite
	 {
	 OFFSET 0 -1 0
	 }
}
ROOT bn
{
	 OFFSET 0 0 0
	 CHANNELS 3 XPosition YPosition Z Position
	 EndSite
	 {
	 OFFSET 0 -1 0
	 }
}
MOTION
Frames: 16
Frame Time: 0.002
0.005795878887176514	-4.4578999280929564E-4	0		0.48187057495117186	-2.36882275390625	0		-1.0543533935546876	-0.05955219268798828	0		-0.6964946899414063	-2.49894287109375	0		1.36633349609375	-0.63151025390625	0		2.951024658203125	-0.13019837951660157	0		4.50754833984375	0.1245539779663086	0		5.6216669921875	0.178862548828125	0		-0.28595809936523436	5.8793193359375	0		
0.004757564067840576	-5.315060019493103E-4	0		0.46909207153320315	-2.36267578125	0		-1.1293604736328124	-0.05746373748779297	0		-0.7014338989257812	-2.50300732421875	0		1.3594556884765625	-0.62440576171875	0		2.973294677734375	-0.11247801971435546	0		4.49162158203125	0.1320183563232422	0		5.62093408203125	0.1793498229980469	0		-0.28836968994140627	5.88023095703125	0		
0.0037843260765075683	-6.25328004360199E-4	0		0.4921898193359375	-2.368139892578125	0		-1.0604234619140624	-0.06380548858642578	0		-0.6723945922851563	-2.51264990234375	0		1.3554576416015625	-0.6283580322265625	0		2.96824560546875	-0.117305419921875	0		4.4857744140625	0.14030752563476562	0		5.6172998046875	0.1661063690185547	0		-0.2897366027832031	5.8801171875	0		
0.0028824989795684813	-7.26502001285553E-4	0		0.4654981994628906	-2.364775390625	0		-1.1312279052734375	-0.057809627532958985	0		-0.7101085205078125	-2.511178466796875	0		1.360496337890625	-0.6344691772460938	0		2.937372314453125	-0.11571013641357422	0		4.494611328125	0.12533788299560547	0		5.61961279296875	0.18028652954101562	0		-0.2910272216796875	5.87999658203125	0		
0.0020574591159820558	-8.341090083122253E-4	0		0.5026693115234375	-2.37448388671875	0		-1.1251334228515626	-0.06310535049438476	0		-0.710773193359375	-2.51133154296875	0		1.34768017578125	-0.636290283203125	0		2.971283935546875	-0.13220989990234375	0		4.4968779296875	0.13146649169921876	0		5.6231796875	0.1615120849609375	0		-0.4293419494628906	5.87414892578125	0		
0.016410932540893555	0.004803606033325195	0		0.4552742004394531	-2.361789794921875	0		-1.11370947265625	-0.053486656188964844	0		-0.6984829711914062	-2.5187021484375	0		1.376119873046875	-0.627803466796875	0		2.968078369140625	-0.10009807586669922	0		4.49534130859375	0.1446400451660156	0		5.61850830078125	0.18109550476074218	0		-0.2630167541503906	5.898240234375	0		
0.025650100708007814	-0.0014773540496826171	0		0.49167584228515626	-2.366491943359375	0		-1.05947314453125	-0.060573978424072264	0		-0.7190151977539062	-2.51952880859375	0		1.3663311767578126	-0.6376937866210938	0		2.93208203125	-0.12046814727783203	0		4.48747607421875	0.13289248657226563	0		5.61804443359375	0.18143084716796876	0		-0.2943182678222656	5.87960546875	0		
7.635299861431121E-5	-0.0011861979961395263	0		0.4393094482421875	-2.360733154296875	0		-1.1340208740234374	-0.05853238677978516	0		-0.6906150512695313	-2.5291630859375	0		1.397798828125	-0.6372718505859375	0		2.953672607421875	-0.11080248260498046	0		4.496890625	0.13283685302734374	0		5.61469140625	0.16798809814453125	0		-0.29519741821289064	5.87946875	0		
-4.221009910106659E-4	-0.001311095952987671	0		0.49864816284179686	-2.377820556640625	0		-1.1345166015625	-0.05870909118652344	0		-0.7171257934570312	-2.536891845703125	0		1.3422711181640625	-0.6404298706054687	0		2.9640791015625	-0.11697216033935547	0		4.48638720703125	0.13308145141601563	0		5.6172880859375	0.18193368530273438	0		-0.40095034790039064	5.88105322265625	0		
-8.479430079460144E-4	-0.0014386149644851685	0		0.4484536437988281	-2.36911083984375	0		-1.1199095458984376	-0.057127117156982425	0		-0.7174517211914062	-2.537047607421875	0		1.3708175048828124	-0.643978759765625	0		2.9569697265625	-0.09787081146240234	0		4.48905419921875	0.13908082580566405	0		5.61698876953125	0.18209043884277343	0		-0.40160800170898436	5.88091015625	0		
0.005905759811401367	0.005316954135894775	0		0.5031485290527343	-2.37112353515625	0		-1.1231363525390625	-0.04924531555175781	0		-0.7177276000976562	-2.537200439453125	0		1.3266646728515625	-0.63234521484375	0		2.9524013671875	-0.11083506774902344	0		4.48791845703125	0.1531146240234375	0		5.61673583984375	0.18218365478515625	0		-0.2546590576171875	5.91036181640625	0		
-0.0015079979896545411	-0.0016975879669189453	0		0.46403167724609373	-2.363604736328125	0		-1.1274837646484375	-0.052339881896972654	0		-0.701010498046875	-2.54062646484375	0		1.3642947998046875	-0.6380582275390625	0		2.991180419921875	-0.10652169036865235	0		4.4845166015625	0.14715603637695313	0		5.616525390625	0.18221826171875	0		-0.2692969970703125	5.899455078125	0		
-0.006673871040344238	0.0032532498836517335	0		0.48978179931640625	-2.367147705078125	0		-1.1277305908203126	-0.052493858337402347	0		-0.7402153930664063	-2.541135986328125	0		1.3410145263671875	-0.640783935546875	0		2.94597314453125	-0.1038550262451172	0		4.48813427734375	0.13905776977539064	0		5.6163505859375	0.1821978759765625	0		-0.2706545104980469	5.90033544921875	0		
-0.005006770133972168	-0.0049080529212951664	0		0.4714884033203125	-2.374975830078125	0		-1.1279322509765626	-0.052641101837158207	0		-0.6986279296875	-2.556958740234375	0		1.3618031005859375	-0.6422344360351563	0		2.957673095703125	-0.1101334228515625	0		4.4879296875	0.1389978332519531	0		5.61620849609375	0.18212226867675782	0		-0.40328915405273436	5.8803525390625	0		
-0.0021208860874176024	-0.002086443901062012	0		0.47338095092773436	-2.37313330078125	0		-1.1240460205078124	-0.04984654998779297	0		-0.7228440551757812	-2.56170361328125	0		1.328634765625	-0.6428136596679688	0		2.9762490234375	-0.1265410385131836	0		4.4818642578125	0.14500859069824218	0		5.61677197265625	0.17677339172363282	0		-0.3873802490234375	5.8879580078125	0		
0.007929090023040772	0.008621539115905762	0		0.47837582397460937	-2.366341552734375	0		-1.11419091796875	-0.05114137649536133	0		-0.6880149536132812	-2.565403076171875	0		1.3786494140625	-0.6347506103515625	0		2.95966064453125	-0.09338529968261719	0		4.49173486328125	0.144735595703125	0		5.6189365234375	0.19380284118652344	0		-0.2693513488769531	5.89790869140625	0		
